# xmcd
#
# Track frame offsets: 
#        150
#        18030
#        34452
#        51440
#        66895
#        83867
#        104225
#        117052
#        129450
#        152687
#        168005
#        185432
#        207335
#        223627
#        239470
#        255272
#        270947
#        285097
#        306817
#        322160
#
# Disc length: 4508 seconds
#
# Revision: 6
# Processed by: cddbd v1.5.1PL2 Copyright (c) Steve Scherf et al.
# Submitted via: ExactAudioCopy v0.95b4
#
DISCID=16119a14
DTITLE=Kenny Rogers - Through The Years: A Retrospective [Disc 4]
DYEAR=1998
DGENRE=Country
TTITLE0=This Woman
TTITLE1=Evening Star
TTITLE2=Twentieth Century Fool
TTITLE3=Love Is What We Make It
TTITLE4=Twenty Years Ago
TTITLE5=They Don't Make Them Like They Used To
TTITLE6=The Pride Is Back (Kenny Rogers with Nickie Ryder)
TTITLE7=Goodbye Marie
TTITLE8=I Prefer The Moonlight
TTITLE9=The Factory
TTITLE10=When You Put Your Heart In It
TTITLE11=Planet Texas
TTITLE12=If I Ever Fall In Love Again (Anne Murray duet with Kenny Rog
TTITLE12=ers)
TTITLE13=The Vows Go Unbroken (Always True To You)
TTITLE14=Maybe (Kenny Rogers duet with Holly Dunn)
TTITLE15=Love Is Strange (Kenny Rogers with Dolly Parton)
TTITLE16=If You Want To Find Love
TTITLE17=Have I Told You Lately That I Love You?
TTITLE18=Unforgettable
TTITLE19=Write Your Name Across My Heart
EXTD=
EXTT0=
EXTT1=
EXTT2=
EXTT3=
EXTT4=
EXTT5=
EXTT6=
EXTT7=
EXTT8=
EXTT9=
EXTT10=
EXTT11=
EXTT12=
EXTT13=
EXTT14=
EXTT15=
EXTT16=
EXTT17=
EXTT18=
EXTT19=
PLAYORDER=
